<?xml version="1.0"?><svg width="600" height="400" xmlns="http://www.w3.org/2000/svg">
 <title>BRead bun</title>
 <g>
  <title>Layer 1</title>
  <g id="g923">
   <path d="m171.102219,122.220673c-9.728409,-1.711563 -20.176788,-2.047638 -30.042557,-0.082718c-42.892494,8.544128 -81.328224,46.077408 -102.730125,79.61998c-7.440275,11.662064 -15.373299,27.379074 -12.738409,41.34256c1.215815,6.439102 5.423763,12.127151 7.326948,18.374481c4.337307,14.229858 7.499428,25.565735 21.913124,34.503754c33.466499,20.751648 79.721901,20.652924 118.256187,24.258881c38.15976,3.570374 76.221039,3.540527 114.560715,4.416809c26.096405,0.595947 60.902496,-0.938843 87.11969,-3.265533c33.115479,-2.937592 54.441589,-7.887817 86.569092,-14.638092c33.508301,-7.039764 74.399139,-26.974915 97.087128,-51.019012c6.885925,-7.298111 17.874207,-20.217422 12.752258,-30.5439c-2.664429,-5.371094 -7.454163,-11.586441 -11.687988,-17.109116c-26.717285,-34.858643 -65.925323,-69.058121 -110.469757,-83.237465c-15.997833,-5.092033 -29.845001,-4.843338 -37.512604,-1.312035c-24.075073,-21.88208 -41.798676,-24.653847 -58.496246,-28.907539c-23.459106,-5.976288 -68.478943,-0.399345 -75.910797,6.184624c-26.837311,-6.534431 -51.193604,-7.453186 -79.171051,0.042458c-12.966278,3.47393 -26.454788,7.012207 -26.825607,21.371857l0,0.000008z" id="path910" fill="#000000"/>
   <path d="m39.944008,240.276138c1.800945,-13.274399 149.122292,-51.534637 168.72451,-42.649429c-1.063049,-9.128647 -10.985229,-26.097977 -15.513382,-34.44339c-11.387909,-15.630554 -17.006607,-26.743164 -30.274704,-31.941956c-11.671692,-4.574104 -23.581009,0.805038 -34.139114,5.057556c-26.488144,10.668671 -50.574226,29.472641 -68.344677,50.529785c-8.766987,10.387329 -16.918045,23.166748 -21.750515,35.600525c-1.950005,5.018524 -4.255222,14.173203 1.297882,17.846909z" id="path913" fill="#fee5b2"/>
   <path d="m295.039124,101.846786l18.503082,17.208626c2.635193,2.710014 9.37735,10.690788 11.443848,15.327965c4.167358,8.012833 106.967377,45.533066 113.46286,81.155426c21.473389,-1.514771 88.776306,-26.966827 103.430298,-10.335632c4.698181,5.330902 8.243103,16.059448 9.408447,22.984344l9.118835,-3.379028c-21.555847,-36.061035 -53.420197,-65.79184 -92.910431,-84.1996c-11.986267,-6.903687 -34.730927,-13.54837 -46.671814,-9.875351c13.865509,19.737961 21.728546,29.56041 27.440521,53.46109c0.513824,3.836792 3.604004,14.541504 -1.247131,20.27211c-1.695404,-4.551224 -3.741516,-12.663422 -5.805206,-17.638031c-9.88855,-23.82782 -18.747894,-38.281021 -31.492462,-53.822388c-14.699493,-17.924286 -44.318451,-30.774811 -69.102966,-33.256523c-15.390503,-1.542282 -30.332703,1.487198 -45.577881,2.096992m-113.328873,16.07766c9.966415,4.236336 13.621552,8.24865 19.70932,17.184837l3.624512,6.840454c4.815277,-8.842728 14.117615,-18.309685 23.475876,-21.725037c22.309769,-8.141037 43.56897,-4.605125 59.951172,13.045853c10.810577,11.64711 18.632599,28.179565 25.217957,42.074112c3.404877,9.410431 7.338562,19.527222 10.846405,20.187439c4.266113,0.54808 7.033783,-8.333038 9.052246,-11.160843c-3.797546,0.254105 -5.674927,-6.336533 -7.178986,-9.704788c-5.389252,-12.073181 -5.999969,-19.479767 -14.891357,-31.477112c-10.952271,-14.778839 -30.154144,-35.339867 -49.947296,-39.847351c-13.040222,-2.968628 -31.048386,-0.423347 -44.136642,1.381958c-10.747772,1.483742 -29.354614,3.961563 -35.723206,13.200478z" id="path911" fill="#fee5b2"/>
   <path d="m327.546295,184.725784c-5.531647,-0.804047 -8.443878,-11.306122 -11.758057,-17.21254c-12.528961,-28.364441 -24.861053,-51.899384 -63.863419,-51.885597c-7.429153,0.002281 -13.911072,0.969261 -20.941177,3.289017c-8.380157,2.765358 -25.298309,6.315399 -27.091782,14.460716c-0.136292,5.869537 0.34375,6.748627 3.093567,14.17276c3.149292,10.926376 6.098389,22.235092 6.863388,32.388153c0.312881,4.164093 1.791199,12.413071 -3.879044,14.891342c-6.185028,0.678711 -13.21022,-7.318802 -16.204803,-11.463379c-8.466415,-11.716019 -16.398193,-25.115616 -30.532272,-31.703995c-37.377556,-17.423584 -84.156509,27.550217 -104.710918,51.347443c-7.272747,8.418961 -23.367912,21.861008 -18.912361,34.331558c2.457508,6.88121 13.707874,13.203171 19.439602,17.846161c31.316933,25.3694 61.32666,27.198898 99.949623,31.890091c53.602097,6.509186 70.887421,11.9841 124.623795,11.614319c7.418152,-0.051697 50.60257,-4.925262 58.22641,-5.010193c44.520996,-0.493835 90.372375,4.035797 132.577515,-8.233765c23.578552,-6.855957 44.516083,-26.486786 63.17337,-42.587433c4.30896,-3.717361 22.893799,-10.93779 22.893799,-16.540878c-0.001221,-5.228668 -14.267151,-17.224457 -17.61908,-21.116394c-12.780334,-14.838531 -35.234131,-33.814774 -53.205322,-42.741318c-7.367676,-3.659958 -28.467804,-14.843109 -36.674255,-11.671234c-5.319763,3.702942 -3.058655,10.689957 -2.787628,15.366821c0.76004,12.741516 9.426422,37.228394 -3.863098,43.560745c-8.189972,1.589096 -24.041962,-66.795715 -51.156067,-79.907425c-9.174713,-6.124443 -27.381134,-13.287033 -37.342224,-14.496147c-10.533813,-1.648369 -13.94632,-2.833961 -25.616028,-2.741791c-8.433594,-0.007568 -11.44516,3.475082 -13.433319,6.007332c-1.020874,4.435623 1.547699,5.465782 5.114868,12.798111c8.545959,22.548477 11.569214,41.08963 8.404938,52.603668m98.22467,-58.018646l1.231812,1.148399l-1.231812,-1.148399z" id="path912" fill="#f9cb98"/>
   <path d="m53.599361,255.091614c51.847538,39.042236 118.047962,37.068909 178.127735,38.713379c62.150528,1.70108 125.546707,11.261139 186.786789,-2.419464c32.492126,-7.259033 80.788666,-18.915741 111.777985,-35.241913c7.115845,-11.462128 5.802307,-1.050186 9.807922,-16.613068c4.047913,-7.443665 -27.38031,-35.244766 -38.498077,-43.543365c-10.557922,-6.431213 -17.023071,-9.177399 -25.112122,-9.108322c-7.410797,0.085693 -7.174683,12.126358 -7.253876,18.465042c-0.183136,14.62442 -9.729034,42.69873 -27.218872,36.13063c-28.65509,-10.760712 -28.459625,-57.430923 -42.892944,-81.732666c-9.743744,-16.405701 -24.537079,-27.148453 -42.458771,-20.646667c-10.26825,3.724136 -10.002289,13.120956 -9.892212,23.410416c0.216492,20.291534 0.428711,16.070969 -0.264771,31.783249c-1.373047,7.091812 -4.044983,23.584518 -12.11142,25.002335c-8.717102,1.532532 -17.65564,-22.347748 -20.720947,-29.14798c-12.264832,-27.205093 -32.927917,-52.811752 -49.786743,-52.622009c-11.823242,-4.441376 -35.619385,6.843063 -39.047104,20.838745c-2.84877,11.625748 0.239975,25.546829 0.650635,37.310791c0.219009,6.264023 -0.962265,21.169434 -8.177734,22.795914c-3.82103,0.860916 -8.286682,1.613602 -11.564682,-0.188354c-19.368942,-10.65155 -22.639603,-38.877823 -40.820938,-48.172363c-13.035492,-6.663422 -27.110077,2.170944 -38.346962,9.175674c-27.110031,16.896255 -58.502586,44.462006 -72.982895,75.809998l0.000004,0z" id="path914" fill="#f1b180"/>
   <path d="m330.762329,178.789886l1.231873,1.148407l-1.231873,-1.148407m-126.879074,13.780823l1.231842,1.148422l-1.231842,-1.148422z" id="path915" fill="#fee5b2"/>
   <path d="m36.518887,234.594818c2.786427,15.099243 5.986572,37.325958 17.307144,48.650391c20.06905,20.072968 59.962017,22.450165 87.233631,25.492279c56.267792,6.277191 112.12291,7.522064 168.761505,7.862c42.753235,0.256042 84.084412,-3.161011 128.11084,-12.6922c34.812836,-11.512726 74.354919,-20.534576 102.24231,-44.626923c7.224731,-6.241592 25.555786,-20.992859 21.375977,-32.185181c-4.271912,-11.441559 -17.015259,7.222321 -19.674683,10.262131c-25.316772,28.935165 -71.080322,36.144882 -107.388763,44.694717c-29.636719,6.977722 -57.775543,9.75946 -88.301575,9.294342c-6.340271,-0.096527 -43.890015,0.799866 -50.274628,1.022644c-56.427917,1.964905 -87.598907,-2.878143 -143.76445,-9.07724c-16.515228,-1.822479 -36.777229,-3.416931 -52.629707,-8.86264c-15.107231,-5.188477 -27.179672,-9.487183 -39.406864,-19.241714c-8.327202,-6.643494 -13.610394,-16.167786 -23.590729,-20.592606l-0.000008,0z" id="path916" fill="#935149"/>
  </g>
 </g>
</svg>